<?xml version="1.0" encoding="UTF-8" standalone="no" ?>
<!DOCTYPE svg PUBLIC "-//W3C//DTD SVG 1.1//EN" "http://www.w3.org/Graphics/SVG/1.1/DTD/svg11.dtd">
<svg xmlns="http://www.w3.org/2000/svg" xmlns:xlink="http://www.w3.org/1999/xlink" version="1.1" width="1000" height="200" viewBox="35.45 195.56 1000 200" xml:space="preserve">
<g transform="matrix(1 0 0 1 500 100)" id="5a36bdb7-71d7-40d5-b469-91fb05bd5203"  >
<rect style="stroke: none; stroke-width: 1; stroke-dasharray: none; stroke-linecap: butt; stroke-dashoffset: 0; stroke-linejoin: miter; stroke-miterlimit: 4; fill: rgb(255,255,255); fill-rule: nonzero; opacity: 1; visibility: hidden;" vector-effect="non-scaling-stroke"  x="-500" y="-100" rx="0" ry="0" width="1000" height="200" />
</g>
<g transform="matrix(Infinity NaN NaN Infinity 0 0)" id="81432bca-70af-4c07-8c10-926b2060c0eb"  >
</g>
<g transform="matrix(0.19 0 0 0.19 535.37 295.57)"  >
<g style="" vector-effect="non-scaling-stroke"   >
		<g transform="matrix(1 0 0 1 -195.25 46.22)"  >
<path style="stroke: none; stroke-width: 1; stroke-dasharray: none; stroke-linecap: butt; stroke-dashoffset: 0; stroke-linejoin: miter; stroke-miterlimit: 4; fill: rgb(0,120,201); fill-rule: nonzero; opacity: 1;" vector-effect="non-scaling-stroke"  transform=" translate(-126.6, -367.4)" d="M 121.1 367.4 C 121.1 364.29999999999995 123.6 362 126.69999999999999 362 C 129.6 362 132.1 364.3 132.1 367.4 C 132.1 370.5 129.6 372.79999999999995 126.69999999999999 372.79999999999995 C 123.6 372.8 121.1 370.6 121.1 367.4 M 126.5 371.9 C 129 371.9 130.8 369.9 130.8 367.4 C 130.8 364.9 128.8 362.9 126.50000000000001 362.9 C 124.00000000000001 362.9 122.00000000000001 364.9 122.00000000000001 367.4 C 122.2 370.1 124 371.9 126.5 371.9 M 125.4 370.6 L 124.5 370.6 L 124.5 364.3 L 126.8 364.3 C 128.2 364.3 129 364.8 129 366.1 C 129 367.20000000000005 128.3 367.70000000000005 127.4 367.90000000000003 L 129.20000000000002 370.6 L 128.10000000000002 370.6 L 126.50000000000003 367.90000000000003 L 125.40000000000003 367.90000000000003 L 125.40000000000003 370.6 z M 126.5 367 C 127.2 367 127.9 367 127.9 365.9 C 127.9 365.2 127.2 365 126.5 365 L 125.2 365 L 125.2 367 L 126.5 367 z" stroke-linecap="round" />
</g>
		<g transform="matrix(1 0 0 1 -239.8 -9.68)"  >
<path style="stroke: none; stroke-width: 1; stroke-dasharray: none; stroke-linecap: butt; stroke-dashoffset: 0; stroke-linejoin: miter; stroke-miterlimit: 4; fill: rgb(0,120,201); fill-rule: nonzero; opacity: 1;" vector-effect="non-scaling-stroke"  transform=" translate(-82.05, -311.5)" d="M 71 288.6 L 68.7 291.3 C 68.5 291.5 68.3 291.8 68.3 292.2 L 68.3 330.8 C 68.3 331.2 68.5 331.3 68.7 331.7 L 71 334.4 C 71.2 334.59999999999997 71.5 334.79999999999995 71.9 334.79999999999995 C 72.30000000000001 334.79999999999995 72.60000000000001 334.59999999999997 72.80000000000001 334.4 L 75.10000000000001 331.7 C 75.30000000000001 331.5 75.50000000000001 331.2 75.50000000000001 330.8 L 75.3 292 C 75.3 291.6 75.1 291.5 74.89999999999999 291.3 L 72.6 288.6 C 72.39999999999999 288.20000000000005 72.1 288.20000000000005 71.69999999999999 288.20000000000005 C 71.5 288.3 71.2 288.3 71 288.6 M 62.3 295.6 C 62.099999999999994 295.6 61.8 295.8 61.8 296 L 59.5 298.7 C 59.3 298.9 59.3 299.09999999999997 59.3 299.2 L 59.3 330.59999999999997 C 59.3 330.79999999999995 59.3 330.99999999999994 59.5 331.09999999999997 L 61.8 333.99999999999994 C 62 334.19999999999993 62.199999999999996 334.3999999999999 62.5 334.3999999999999 C 62.7 334.3999999999999 63 334.19999999999993 63 333.99999999999994 L 65.2 331.09999999999997 C 65.4 330.9 65.4 330.7 65.4 330.59999999999997 L 65.4 299.2 C 65.4 299 65.4 298.8 65.2 298.7 L 62.900000000000006 296 C 62.7 295.8 62.5 295.6 62.3 295.6 M 53.3 304.5 C 53.099999999999994 304.5 52.9 304.5 52.8 304.7 L 50.5 307 C 50.3 307.2 50.3 307.2 50.3 307.4 L 50.3 322.7 C 50.3 322.9 50.3 323.09999999999997 50.5 323.09999999999997 L 52.8 325.4 C 53 325.59999999999997 53.199999999999996 325.59999999999997 53.3 325.59999999999997 C 53.5 325.59999999999997 53.699999999999996 325.59999999999997 53.8 325.4 L 56 323 C 56.2 322.8 56.2 322.6 56.2 322.6 L 56.2 307.3 C 56.2 307.1 56.2 306.90000000000003 56 306.90000000000003 L 53.8 304.6 C 53.7 304.5 53.5 304.5 53.3 304.5 M 92.4 288.3 C 92 288.3 91.7 288.5 91.5 288.7 L 89.2 291.4 C 89 291.59999999999997 88.8 291.9 88.8 292.09999999999997 L 88.8 330.49999999999994 C 88.8 330.8999999999999 89 330.99999999999994 89.2 331.3999999999999 L 91.5 334.0999999999999 C 91.7 334.2999999999999 92 334.4999999999999 92.4 334.4999999999999 C 92.80000000000001 334.4999999999999 93.10000000000001 334.2999999999999 93.30000000000001 334.0999999999999 L 95.60000000000001 331.3999999999999 C 95.80000000000001 331.19999999999993 96.00000000000001 330.8999999999999 96.00000000000001 330.49999999999994 L 96.00000000000001 292 C 96.00000000000001 291.6 95.80000000000001 291.5 95.60000000000001 291.1 L 93.30000000000001 288.6 C 93 288.3 92.8 288.3 92.4 288.3 M 101.3 296 L 99 298.7 C 99 298.9 98.8 299.09999999999997 98.8 299.2 L 98.8 330.7 C 98.8 330.9 98.8 331.09999999999997 99 331.2 L 101.2 334.09999999999997 C 101.4 334.29999999999995 101.60000000000001 334.49999999999994 101.7 334.49999999999994 C 101.8 334.49999999999994 102.2 334.29999999999995 102.2 334.09999999999997 L 104.5 331.2 C 104.7 331 104.7 330.8 104.7 330.7 L 104.7 299.3 C 104.7 299.1 104.7 298.90000000000003 104.5 298.8 L 102.2 296.1 C 102.4 295.70000000000005 102.2 295.6 102 295.6 C 101.6 295.6 101.4 295.8 101.3 296 M 110.4 304.6 L 108.10000000000001 306.90000000000003 C 107.9 307.1 107.9 307.1 107.9 307.3 L 107.9 322.6 C 107.9 322.8 107.9 323 108.10000000000001 323 L 110.30000000000001 325.3 C 110.50000000000001 325.5 110.70000000000002 325.5 110.80000000000001 325.5 C 110.9 325.5 111.20000000000002 325.5 111.30000000000001 325.3 L 113.60000000000001 323 C 113.80000000000001 322.8 113.80000000000001 322.6 113.80000000000001 322.6 L 113.80000000000001 307.3 C 113.80000000000001 307.1 113.80000000000001 306.90000000000003 113.60000000000001 306.90000000000003 L 111.4 304.6 C 111.2 304.40000000000003 111 304.40000000000003 110.9 304.40000000000003 C 110.6 304.5 110.4 304.5 110.4 304.6" stroke-linecap="round" />
</g>
		<g transform="matrix(1 0 0 1 -242.15 0)"  >
<path style="stroke: none; stroke-width: 1; stroke-dasharray: none; stroke-linecap: butt; stroke-dashoffset: 0; stroke-linejoin: miter; stroke-miterlimit: 4; fill: rgb(0,120,201); fill-rule: nonzero; opacity: 1;" vector-effect="non-scaling-stroke"  transform=" translate(-79.7, -321.18)" d="M 95 356.2 C 105.8 357.09999999999997 118.4 351 124 345.2 C 133.4 335.7 137.5 324.3 137.5 309.5 C 137.5 281 117.7 262.3 86.9 262.3 C 66.2 262.3 48.00000000000001 271.1 35.400000000000006 286.8 C 26.600000000000005 297.6 21.900000000000006 310.90000000000003 21.900000000000006 325.2 C 21.900000000000006 343.2 29.300000000000004 357.8 42.60000000000001 367.9 C 52.50000000000001 375.5 66.70000000000002 380.7 83.9 380 C 95.10000000000001 379.6 106.4 376.6 112.4 372.1 C 117.30000000000001 368.3 115.10000000000001 368.5 113.5 368.70000000000005 C 112.4 368.90000000000003 111 369.40000000000003 111 369.40000000000003 C 102.4 373.20000000000005 93.5 375.50000000000006 84.2 375.50000000000006 C 53.2 375.50000000000006 32.800000000000004 356.90000000000003 32.800000000000004 326.30000000000007 C 32.800000000000004 305.4000000000001 41.300000000000004 287.9000000000001 56.60000000000001 276.9000000000001 C 66.00000000000001 270.1000000000001 77 266.6000000000001 88.9 266.6000000000001 C 115.2 266.6000000000001 133.8 283.50000000000006 133.60000000000002 308.6000000000001 C 133.40000000000003 324.1000000000001 130.70000000000002 332.7000000000001 122.40000000000002 342.1000000000001 C 114.80000000000003 350.7000000000001 103.10000000000002 352.9000000000001 96.10000000000002 352.2000000000001 C 87.50000000000003 351.3000000000001 86.60000000000002 346.3000000000001 86.40000000000002 341.9000000000001 L 86.40000000000002 341.4000000000001 L 86.40000000000002 285.4000000000001 C 86.40000000000002 284.9000000000001 86.20000000000002 284.5000000000001 86.00000000000001 284.0000000000001 L 84.00000000000001 280.9000000000001 C 83.60000000000001 280.2000000000001 82.90000000000002 279.80000000000007 82.40000000000002 279.80000000000007 C 81.70000000000002 279.80000000000007 81.10000000000002 280.20000000000005 80.80000000000003 280.9000000000001 L 79.00000000000003 284.0000000000001 C 78.80000000000003 284.4000000000001 78.60000000000002 284.9000000000001 78.60000000000002 285.3000000000001 L 78.60000000000002 340.8000000000001 L 78.60000000000002 342.60000000000014 L 78.60000000000002 342.60000000000014 L 78.60000000000002 342.60000000000014 C 78.2 349.5 85.4 355.5 95 356.2" stroke-linecap="round" />
</g>
		<g transform="matrix(1 0 0 1 65.25 0.22)"  >
<path style="stroke: none; stroke-width: 1; stroke-dasharray: none; stroke-linecap: butt; stroke-dashoffset: 0; stroke-linejoin: miter; stroke-miterlimit: 4; fill: rgb(0,120,201); fill-rule: nonzero; opacity: 1;" vector-effect="non-scaling-stroke"  transform=" translate(-387.1, -321.4)" d="M 621.8 354 L 621.8 312.6 C 621.8 301.6 616 294.90000000000003 604.5 294.90000000000003 C 596.6 294.90000000000003 590.1 299.00000000000006 584.1 304.3 L 584.1 266.1 L 576 267.5 L 576 354 L 584.1 354 L 584.1 312.2 C 590.4 305.9 596.7 302.09999999999997 602.8000000000001 302.09999999999997 C 610.2 302.09999999999997 613.6 306.59999999999997 613.6 314.2 L 613.6 354.2 L 621.7 354.2 L 621.7 354 z M 567.7 348.6 L 566.6 341.20000000000005 C 560.7 346.40000000000003 555.1 348.00000000000006 548.9 348.00000000000006 C 537.1999999999999 348.00000000000006 530 339.20000000000005 530 324.90000000000003 C 530 310.70000000000005 537 301.8 548.2 301.8 C 554.9000000000001 301.8 560.3000000000001 304.1 565.9000000000001 308.8 L 567.2 300.7 C 562.5 297.3 556.2 294.8 548.3000000000001 294.8 C 533.5000000000001 294.8 521.8000000000001 305.6 521.8000000000001 325.1 C 521.8000000000001 344.20000000000005 533.2 355.20000000000005 547.9000000000001 355.20000000000005 C 555.9 355.3 562.2 353.1 567.7 348.6 M 507.7 319.2 L 476.2 319.2 C 477.8 308 483.59999999999997 301.4 492.8 301.4 C 502 301.4 506.8 308.8 507.7 319.2 M 516 323.9 C 516 307.9 508.4 294.9 492.6 294.9 C 478.40000000000003 294.9 467.6 306.4 467.6 325 C 467.6 345 478.40000000000003 355.3 493.70000000000005 355.3 C 502.70000000000005 355.3 510.1 352.1 515.9000000000001 347 L 514.6000000000001 339.6 C 508.70000000000016 344.8 501.8000000000001 348.20000000000005 494.20000000000016 348.20000000000005 C 482.50000000000017 348.20000000000005 476.00000000000017 339.70000000000005 475.60000000000014 325.50000000000006 L 516 325.50000000000006 L 516 323.9 z M 465.6 354 L 464.3 347.3 C 463 347.5 460.7 347.8 458.90000000000003 347.8 C 452.6 347.8 450.3 345.3 450.3 339.3 L 450.3 303 L 464.7 303 L 463.59999999999997 296.2 L 450.29999999999995 296.2 L 450.29999999999995 274.8 L 442.4 276.1 L 442.4 296.1 L 433.4 296.1 L 433.4 302.90000000000003 L 442.4 302.90000000000003 L 442.4 340.70000000000005 C 442.4 351.30000000000007 448.29999999999995 354.90000000000003 457.5 354.90000000000003 C 460.9 354.9 463.8 354.6 465.6 354 M 429.7 354 L 429.7 311.5 C 429.7 300.5 423.8 293.7 412.8 293.7 C 404.90000000000003 293.7 398.6 298 393.2 303.2 L 391.9 294.9 L 379.5 294.9 L 379.5 354 L 394.3 354 L 394.3 314.2 C 398.6 309.7 403.1 306.8 407.8 306.8 C 413.2 306.8 415.40000000000003 310.40000000000003 415.40000000000003 315.40000000000003 L 415.40000000000003 354.1 L 429.8 354.1 L 429.8 354 z M 358 318.2 L 334.6 318.2 C 335.70000000000005 308.5 340.5 303.8 346.3 303.8 C 353.3 303.7 356.9 309 358 318.2 M 372.3 323.7 C 372.3 306.9 364.40000000000003 293.59999999999997 346.5 293.59999999999997 C 331 293.59999999999997 319.5 305.29999999999995 319.5 324.4 C 319.5 345.7 331.9 355.2 348.3 355.2 C 357.8 355.2 365.6 352.3 371.90000000000003 348 L 370.1 336.5 C 363.6 341 357.3 343.9 349.70000000000005 343.9 C 340.70000000000005 343.9 334.6 338.9 333.80000000000007 327.29999999999995 L 371.80000000000007 327.29999999999995 C 372.3 326.5 372.3 325 372.3 323.7 M 301.1 323.7 C 301.1 336.7 295.3 343 287.8 343 C 282.8 343 280.1 342.1 276.40000000000003 340.5 L 276.40000000000003 314.9 C 280.40000000000003 309.9 284.50000000000006 306.59999999999997 289.70000000000005 306.59999999999997 C 296.4 306.6 301.1 312.2 301.1 323.7 M 316 322.8 C 316 303 306.1 293.6 293.7 293.6 C 285.4 293.6 279.8 298.1 275.5 303 L 274.2 294.9 L 261.8 294.9 L 261.8 376.7 L 276.6 374.5 L 276.6 352.3 C 280.20000000000005 353.6 284.70000000000005 354.6 290.3 354.6 C 303.8 354.6 316 344.8 316 322.8 M 255.7 336.7 C 255.7 325.5 249.79999999999998 321.4 234.39999999999998 317.4 C 225.59999999999997 315.09999999999997 223.39999999999998 313.4 223.39999999999998 310.2 C 223.39999999999998 307 226.09999999999997 304.8 231.7 304.8 C 237.6 304.8 244.5 307 250.39999999999998 310.2 L 252.39999999999998 297.9 C 246.49999999999997 295.2 239.39999999999998 293.79999999999995 231.7 293.79999999999995 C 218 293.79999999999995 209.89999999999998 300.99999999999994 209.89999999999998 311.09999999999997 C 209.89999999999998 321.9 215.79999999999998 326.09999999999997 230.29999999999998 329.7 C 239.7 332 242.39999999999998 333.7 242.39999999999998 338 C 242.39999999999998 341.8 238.99999999999997 344.1 232.7 344.1 C 225.29999999999998 344.1 217.6 341.20000000000005 211.1 337.1 L 209.1 349.40000000000003 C 214.7 352.50000000000006 223.5 355.20000000000005 232.2 355.20000000000005 C 247.4 355.1 255.7 348.3 255.7 336.7 M 187.9 337.8 C 183.9 341.8 179.1 344.1 174 344.1 C 169.5 344.1 166.8 341.6 166.8 337.3 C 166.8 331.7 170.8 326.7 187.9 324.5 L 187.9 337.8 z M 202.7 354 L 202.7 313.5 C 202.7 299.3 195.1 293.7 179.79999999999998 293.7 C 170.39999999999998 293.7 163.2 295.9 156.39999999999998 298.59999999999997 L 158.2 310.29999999999995 C 164.5 307.4 171 305.59999999999997 177.79999999999998 305.59999999999997 C 184.29999999999998 305.59999999999997 187.89999999999998 308.09999999999997 187.89999999999998 314.4 L 187.89999999999998 316.2 C 164.09999999999997 318.4 152.39999999999998 324.5 152.39999999999998 338.9 C 152.39999999999998 349.2 159.09999999999997 355.29999999999995 169.2 355.29999999999995 C 178 355.29999999999995 184.2 351.29999999999995 188.79999999999998 346.29999999999995 L 190.1 353.99999999999994 C 190.1 354 202.7 354 202.7 354 z" stroke-linecap="round" />
</g>
</g>
</g>
</svg>